<svg width="200" height="200" viewBox="0 0 200 200" fill="none" xmlns="http://www.w3.org/2000/svg">
<g opacity="0.3" filter="url(#filter0_i)">
<path fill-rule="evenodd" clip-rule="evenodd" d="M100 193C151.362 193 193 151.362 193 100C193 48.6375 151.362 7 100 7C48.6375 7 7 48.6375 7 100C7 151.362 48.6375 193 100 193ZM100 200C155.228 200 200 155.228 200 100C200 44.7715 155.228 0 100 0C44.7715 0 0 44.7715 0 100C0 155.228 44.7715 200 100 200Z" fill="#FF0A0A"/>
</g>
<circle cx="100" cy="100" r="65.5814" fill="#FF0A0A"/>
<path d="M109.24 100.342L122.521 87.0605C124.248 85.4668 124.248 82.8105 122.521 81.2168L119.6 78.2949C118.006 76.5684 115.35 76.5684 113.756 78.2949L100.475 91.5762L87.0605 78.2949C85.4668 76.5684 82.8105 76.5684 81.2168 78.2949L78.2949 81.2168C76.5684 82.8105 76.5684 85.4668 78.2949 87.0605L91.5762 100.342L78.2949 113.756C76.5684 115.35 76.5684 118.006 78.2949 119.6L81.2168 122.521C82.8105 124.248 85.4668 124.248 87.0605 122.521L100.475 109.24L113.756 122.521C115.35 124.248 118.006 124.248 119.6 122.521L122.521 119.6C124.248 118.006 124.248 115.35 122.521 113.756L109.24 100.342Z" fill="white"/>
<defs>
<filter id="filter0_i" x="0" y="0" width="200" height="200" filterUnits="userSpaceOnUse" color-interpolation-filters="sRGB">
<feFlood flood-opacity="0" result="BackgroundImageFix"/>
<feBlend mode="normal" in="SourceGraphic" in2="BackgroundImageFix" result="shape"/>
<feColorMatrix in="SourceAlpha" type="matrix" values="0 0 0 0 0 0 0 0 0 0 0 0 0 0 0 0 0 0 127 0" result="hardAlpha"/>
<feOffset/>
<feGaussianBlur stdDeviation="5"/>
<feComposite in2="hardAlpha" operator="arithmetic" k2="-1" k3="1"/>
<feColorMatrix type="matrix" values="0 0 0 0 0 0 0 0 0 0 0 0 0 0 0 0 0 0 0.05 0"/>
<feBlend mode="normal" in2="shape" result="effect1_innerShadow"/>
</filter>
</defs>
</svg>
