<svg fill="none" height="16" viewBox="0 0 16 16" width="16" xmlns="http://www.w3.org/2000/svg" xmlns:xlink="http://www.w3.org/1999/xlink"><clipPath id="a"><path d="m0 0h16v16h-16z"/></clipPath><g clip-path="url(#a)"><path clip-rule="evenodd" d="m8 16c2.1217 0 4.1566-.8429 5.6569-2.3431 1.5002-1.5003 2.3431-3.5352 2.3431-5.6569 0-2.12173-.8429-4.15656-2.3431-5.65685-1.5003-1.500295-3.5352-2.34315-5.6569-2.34315-2.12173 0-4.15656.842855-5.65685 2.34315-1.500295 1.50029-2.34315 3.53512-2.34315 5.65685 0 2.1217.842855 4.1566 2.34315 5.6569 1.50029 1.5002 3.53512 2.3431 5.65685 2.3431zm3.027-9.84-2.109 2.09 2.11 2.11c.0567.061.0881.1412.0881.2245s-.0314.1635-.0881.2245l-.489.488c-.0612.0567-.1416.0882-.225.0882s-.1638-.0315-.225-.0882l-2.089-2.11-2.11 2.11c-.06103.0567-.14123.0881-.2245.0881s-.16347-.0314-.2245-.0881l-.488-.488c-.05694-.0611-.0886-.1415-.0886-.225s.03166-.1639.0886-.225l2.11-2.109-2.11-2.09c-.05672-.0612-.08823-.14156-.08823-.225s.03151-.1638.08823-.225l.488-.487c.06109-.05694.14149-.0886.225-.0886s.16391.03166.225.0886l2.109 2.109 2.09-2.11c.0612-.05672.1416-.08823.225-.08823s.1638.03151.225.08823l.487.489c.0569.06109.0886.14149.0886.225s-.0317.16391-.0886.225z" fill="#e3294b" fill-rule="evenodd"/></g></svg>