<svg fill="none" height="16" viewBox="0 0 16 16" width="16" xmlns="http://www.w3.org/2000/svg" xmlns:xlink="http://www.w3.org/1999/xlink"><clipPath id="a"><path d="m0 0h16v16h-16z"/></clipPath><g clip-path="url(#a)"><path clip-rule="evenodd" d="m8 16c2.1217 0 4.1566-.8429 5.6569-2.3431 1.5002-1.5003 2.3431-3.5352 2.3431-5.6569 0-2.12173-.8429-4.15656-2.3431-5.65685-1.5003-1.500295-3.5352-2.34315-5.6569-2.34315-2.12173 0-4.15656.842855-5.65685 2.34315-1.500295 1.50029-2.34315 3.53512-2.34315 5.65685 0 2.1217.842855 4.1566 2.34315 5.6569 1.50029 1.5002 3.53512 2.3431 5.65685 2.3431zm-.869-11.607c-.00303-.05096.00448-.102.02208-.14993.0176-.04792.0449-.0917.08019-.12859.0353-.03689.07782-.06609.12492-.08579s.09776-.02947.14881-.02869h.986c.219 0 .385.183.376.393l-.227 5.1h-1.275zm.873 7.686c-.602 0-1.004-.437-1.004-1.014 0-.593.41-1.013 1.004-1.013s.987.428.996 1.014c-.009.585-.393 1.013-.996 1.013z" fill="#fc8e0d" fill-rule="evenodd"/></g></svg>