<svg width="16" height="16" viewBox="0 0 16 16" fill="none" xmlns="http://www.w3.org/2000/svg">
<g clip-path="url(#clip0)">
<path fill-rule="evenodd" clip-rule="evenodd" d="M8 16C10.1217 16 12.1566 15.1571 13.6569 13.6569C15.1571 12.1566 16 10.1217 16 8C16 5.87827 15.1571 3.84344 13.6569 2.34315C12.1566 0.842855 10.1217 0 8 0C5.87827 0 3.84344 0.842855 2.34315 2.34315C0.842855 3.84344 0 5.87827 0 8C0 10.1217 0.842855 12.1566 2.34315 13.6569C3.84344 15.1571 5.87827 16 8 16V16ZM6.36 10.027L11.496 4.891C11.594 4.793 11.75 4.793 11.828 4.891L12.395 5.437C12.473 5.535 12.473 5.691 12.395 5.77L6.535 11.629C6.51392 11.652 6.48827 11.6704 6.45969 11.683C6.43112 11.6956 6.40023 11.7021 6.369 11.7021C6.33777 11.7021 6.30688 11.6956 6.27831 11.683C6.24973 11.6704 6.22408 11.652 6.203 11.629L3.586 9.03C3.508 8.933 3.508 8.776 3.586 8.698L4.152 8.132C4.23 8.054 4.387 8.054 4.484 8.132L6.359 10.026L6.36 10.027Z" fill="#48BB78"/>
</g>
<defs>
<clipPath id="clip0">
<rect width="16" height="16" fill="white"/>
</clipPath>
</defs>
</svg>
