<svg fill="none" height="556" viewBox="0 0 3429 556" width="3429" xmlns="http://www.w3.org/2000/svg" xmlns:xlink="http://www.w3.org/1999/xlink"><linearGradient id="a" gradientUnits="userSpaceOnUse" x1="128.999" x2="414.999" y1="47.1204" y2="515.12"><stop offset="0" stop-color="#6c00ff"/><stop offset="1" stop-color="#dabfff"/></linearGradient><mask id="b" height="481" maskUnits="userSpaceOnUse" width="553" x="0" y="37"><path d="m.515625 277.049 138.454375-239.674 276.014.5148 137.56 240.1882-138.454 239.674-276.015-.514z" fill="url(#a)"/></mask><mask id="c" height="481" maskUnits="userSpaceOnUse" width="553" x="0" y="37"><path d="m.515625 277.049 138.454375-239.674 276.014.5148 137.56 240.1882-138.454 239.674-276.015-.514z" fill="url(#a)"/></mask><g mask="url(#b)"><path clip-rule="evenodd" d="m149.154 43.291c16.463-4.2749 34.457-10.197 45.986-14.3457l3.724 10.3502c-11.739 4.2245-30.066 10.2593-46.946 14.6424-8.428 2.1884-16.625 3.9994-23.519 4.951-3.445.4754-6.682.7533-9.526.7301-2.733-.0223-5.606-.3197-8.021-1.3452l4.3-10.1249c.424.1803 1.578.4522 3.811.4705 2.121.0173 4.786-.193 7.932-.6272 6.285-.8675 14.015-2.5606 22.259-4.7012zm45.614 44.324c57.827 2.461 113.276-19.781 154.951-36.4977 9.086-3.6446 17.517-7.0265 25.175-9.8327l-3.784-10.3285c-8.158 2.9893-16.961 6.5118-26.314 10.2544v.0003c-41.716 16.693-94.369 37.7632-149.56 35.4142-25.292-1.076-45.805 9.716-61.138 21.801-11.234 8.853-20.305 19.002-26.172 25.565-1.985 2.22-3.602 4.03-4.813 5.24l-57.0004 57 7.778 7.778 57.0004-57c1.752-1.752 3.753-3.991 6.048-6.56 5.84-6.535 13.582-15.199 23.967-23.384 14.167-11.165 32.154-20.373 53.862-19.45zm154.628 21.213c-32.476 11.034-66.443 19.792-93.394 19.792-29.599 0-49.042 6.61-63.343 14.995-10.774 6.317-18.59 13.539-26.054 20.436l-.006.005c-2.623 2.423-5.202 4.807-7.85 7.096-18.092 18.095-58.406 59.014-76.6274 79.613-9.699 10.963-23.947 21.619-37.5349 30.4-13.6553 8.824-27.0095 15.987-35.2085 19.915l-4.7532-9.92c7.801-3.738 20.7468-10.675 33.9915-19.234 13.3121-8.603 26.5641-18.614 35.2651-28.45 18.531-20.947 59.2524-62.266 77.2314-80.245l.144-.144.154-.132c2.233-1.926 4.572-4.088 7.064-6.393 7.64-7.064 16.72-15.459 28.62-22.436 16.116-9.449 37.506-16.506 68.907-16.506 25.049 0 57.582-8.242 89.856-19.207 32.136-10.919 63.455-24.339 85.91-34.3186l4.468 10.0516c-22.545 10.02-54.226 23.601-86.84 34.682zm-94.014 66.616c12.895-3.343 29.65-5.898 48.472-8.517 3.468-.482 7.002-.966 10.589-1.458l.054-.007.018-.003h.005c15.734-2.155 32.462-4.447 48.929-7.324 20.252-3.538 40.348-8 58.052-14.296 17.649-6.276 33.352-14.521 44.437-25.877l-7.872-7.684c-9.415 9.645-23.337 17.182-40.251 23.197-16.858 5.995-36.262 10.331-56.26 13.825-16.247 2.838-32.727 5.096-48.45 7.25h-.004c-3.632.498-7.224.99-10.763 1.482-18.741 2.607-36.111 5.237-49.716 8.764-47.823 12.399-85.75 49.675-115.024 92.023-55.2074 67.946-96.18 70.596-111.3091 66.954l-2.5746 10.695c20.8588 5.021 65.8323-.988 122.5587-70.882l.134-.165.121-.176c28.709-41.579 64.744-76.365 108.854-87.801zm245.602-9.702c-20.135 12.99-75.776 41.06-133.823 41.06-36.176 0-57.49 3.089-74.707 10.033-17.277 6.968-30.876 17.968-51.576 35.071-19.094 15.775-34.745 31.327-49.712 46.198l-.135.135c-.938.931-1.872 1.859-2.804 2.785-15.813 15.697-31.107 30.645-48.878 43.791l-.327.242-.359.191c-23.585 12.561-41.9384 18.956-57.8134 22.172-15.796 3.2-28.92 3.2-41.7037 3.2h-.0015-.1428v-11c12.847 0 25.008-.012 39.664-2.981 14.56-2.95 31.8024-8.872 54.4674-20.909 16.912-12.554 31.603-26.886 47.344-42.513.993-.986 1.99-1.977 2.992-2.972l.002-.002c14.926-14.831 30.905-30.71 50.4-46.817 20.452-16.898 35.342-29.079 54.469-36.793 19.186-7.738 42.189-10.831 78.821-10.831 55.068 0 108.601-26.879 127.859-39.303zm-160.326 87.623c8.816-2.784 21.581-4.256 37.222-5.512 4.549-.366 9.326-.712 14.273-1.071l.008-.001h.002.001.01c11.775-.854 24.511-1.778 37.427-3.193 36.606-4.012 76.539-12.115 104.875-35.204l-6.948-8.528c-25.663 20.911-62.731 28.809-99.125 32.797-12.706 1.392-25.101 2.291-36.793 3.139l-.012.001h-.004c-5.004.363-9.879.716-14.595 1.095-15.484 1.244-29.469 2.771-39.653 5.987-8.655 2.734-19.846 10.076-31.969 19.367-12.312 9.436-26.229 21.399-40.463 33.998-7.106 6.291-14.283 12.73-21.39 19.108-21.548 19.336-42.457 38.099-58.822 50.372-16.414 12.311-36.541 19.097-57.476 24.697-5.052 1.351-10.183 2.639-15.316 3.927-15.7454 3.952-31.5114 7.908-45.0744 13.721l4.333 10.111c12.683-5.436 27.212-9.085 42.7124-12.978l.004-.001c5.293-1.329 10.699-2.687 16.183-4.154 21.162-5.66 43.035-12.873 61.234-26.523 16.789-12.592 38.256-31.856 59.912-51.29 7.028-6.307 14.076-12.632 20.991-18.753 14.201-12.571 27.877-24.318 39.863-33.504 12.175-9.331 21.988-15.523 28.59-17.608zm146.683 28.284c-31.223 5.929-69.833 10.2-103.976 12.459-6.663.441-14.523 3.522-23.295 8.824-8.699 5.258-17.854 12.427-27.034 20.485-12.11 10.63-23.821 22.388-34.424 33.033l-.006.007c-5.612 5.634-10.914 10.957-15.8 15.636l-1.142 1.094-.255.245c-10.665 10.224-23.011 22.059-41.806 34.151-19.619 12.622-46.097 25.426-84.995 37.298-31.631 9.653-46.94 32.913-50.144 39.612l-9.9244-4.746c4.13-8.634 21.4884-34.593 56.8574-45.387 38.101-11.629 63.624-24.042 82.254-36.028 17.889-11.508 29.58-22.714 40.231-32.923.44-.422.879-.842 1.316-1.261 4.529-4.337 9.649-9.475 15.165-15.01v-.001l.003-.002.003-.003c10.778-10.816 23.067-23.147 35.411-33.982 9.414-8.264 19.118-15.901 28.6-21.632 9.407-5.686 19.047-9.776 28.259-10.386 33.857-2.24 71.998-6.469 102.65-12.29 15.348-2.915 28.634-6.195 38.512-9.755 4.946-1.783 8.862-3.575 11.702-5.326 2.953-1.821 4.166-3.249 4.552-4.044l9.894 4.806c-1.739 3.581-5.057 6.371-8.672 8.601-3.729 2.299-8.418 4.391-13.746 6.311-10.669 3.846-24.601 7.253-40.19 10.214zm-52.231 49.957c13.874.991 37.549.599 59.594-1.219 11.043-.91 21.805-2.188 30.818-3.861 8.739-1.623 16.679-3.755 21.423-6.759l-5.886-9.293c-2.756 1.745-8.753 3.604-17.545 5.236-8.519 1.582-18.882 2.821-29.714 3.715-21.705 1.789-44.78 2.147-57.906 1.209-14.471-1.033-25.788 1.516-36.371 7.53-10.322 5.865-19.69 14.899-30.489 26.147-11.821 12.314-38.526 37.346-67.32 60.819-14.387 11.729-29.219 23.006-42.915 32.088-13.799 9.15-26.064 15.812-35.392 18.639-36.445 11.044-56.649 33.139-69.368 47.048-1.999 2.186-3.813 4.17-5.476 5.877l7.878 7.676c1.845-1.893 3.792-4.013 5.885-6.293l.002-.002c12.755-13.892 30.917-33.672 64.269-43.779 10.922-3.31 24.282-10.716 38.281-19.998 14.1-9.35 29.237-20.868 43.787-32.73 29.082-23.708 56.126-49.041 68.305-61.727 10.836-11.288 19.218-19.218 27.988-24.201 8.508-4.835 17.623-7.017 30.152-6.122zm-73.464 108.634c4.308-3.811 9.531-8.915 15.277-14.532l.033-.032c1.721-1.682 3.489-3.409 5.293-5.162 7.927-7.7 16.716-16.039 25.871-23.691 9.173-7.668 18.565-14.518 27.667-19.312 9.157-4.823 17.562-7.319 24.901-6.9l.157.009h.157 47.5v-11h-47.349c-10.11-.534-20.533 2.913-30.492 8.159-10.069 5.302-20.132 12.694-29.596 20.604-9.481 7.925-18.51 16.499-26.481 24.241-1.821 1.769-3.58 3.488-5.272 5.141l-.033.033-.066.064-.01.01-.014.013-.038.037-.032.032-.003.002-.042.042-.003.002-.005.005c-5.689 5.56-10.627 10.386-14.708 13.996-25.952 22.958-75.641 63.676-110.186 84.403l5.66 9.432c35.455-21.273 85.767-62.554 111.814-85.596zm-22.683 89.696c12.767-13.251 46.594-39.464 79.147-63.116 16.188-11.762 31.911-22.783 44.315-31.1 6.206-4.162 11.546-7.623 15.681-10.155 4.37-2.675 6.849-3.965 7.635-4.227l-3.478-10.435c-2.214.738-5.818 2.781-9.9 5.28-4.317 2.643-9.797 6.197-16.065 10.4-12.544 8.412-28.383 19.516-44.654 31.338-32.364 23.515-67.036 50.302-80.603 64.383zm85.988-37.392c-3.622 2.415-9.23 6.427-14.38 10.689-2.575 2.13-5.104 4.38-7.236 6.568-2.051 2.104-4.062 4.479-5.252 6.86l9.838 4.919c.41-.82 1.449-2.211 3.292-4.102 1.762-1.808 3.97-3.784 6.37-5.77 4.8-3.972 10.092-7.76 13.47-10.011z" fill="#ab6dff" fill-rule="evenodd"/></g><g mask="url(#c)"><path clip-rule="evenodd" d="m149.154 43.291c16.463-4.2749 34.457-10.197 45.986-14.3457l3.724 10.3502c-11.739 4.2245-30.066 10.2593-46.946 14.6424-8.428 2.1884-16.625 3.9994-23.519 4.951-3.445.4754-6.682.7533-9.526.7301-2.733-.0223-5.606-.3197-8.021-1.3452l4.3-10.1249c.424.1803 1.578.4522 3.811.4705 2.121.0173 4.786-.193 7.932-.6272 6.285-.8675 14.015-2.5606 22.259-4.7012zm45.614 44.324c57.827 2.461 113.276-19.781 154.951-36.4977 9.086-3.6446 17.517-7.0265 25.175-9.8327l-3.784-10.3285c-8.158 2.9893-16.961 6.5118-26.314 10.2544v.0003c-41.716 16.693-94.369 37.7632-149.56 35.4142-25.292-1.076-45.805 9.716-61.138 21.801-11.234 8.853-20.305 19.002-26.172 25.565-1.985 2.22-3.602 4.03-4.813 5.24l-57.0004 57 7.778 7.778 57.0004-57c1.752-1.752 3.753-3.991 6.048-6.56 5.84-6.535 13.582-15.199 23.967-23.384 14.167-11.165 32.154-20.373 53.862-19.45zm154.628 21.213c-32.476 11.034-66.443 19.792-93.394 19.792-29.599 0-49.042 6.61-63.343 14.995-10.774 6.317-18.59 13.539-26.054 20.436l-.006.005c-2.623 2.423-5.202 4.807-7.85 7.096-18.092 18.095-58.406 59.014-76.6274 79.613-9.699 10.963-23.947 21.619-37.5349 30.4-13.6553 8.824-27.0095 15.987-35.2085 19.915l-4.7532-9.92c7.801-3.738 20.7468-10.675 33.9915-19.234 13.3121-8.603 26.5641-18.614 35.2651-28.45 18.531-20.947 59.2524-62.266 77.2314-80.245l.144-.144.154-.132c2.233-1.926 4.572-4.088 7.064-6.393 7.64-7.064 16.72-15.459 28.62-22.436 16.116-9.449 37.506-16.506 68.907-16.506 25.049 0 57.582-8.242 89.856-19.207 32.136-10.919 63.455-24.339 85.91-34.3186l4.468 10.0516c-22.545 10.02-54.226 23.601-86.84 34.682zm-94.014 66.616c12.895-3.343 29.65-5.898 48.472-8.517 3.468-.482 7.002-.966 10.589-1.458l.054-.007.018-.003h.005c15.734-2.155 32.462-4.447 48.929-7.324 20.252-3.538 40.348-8 58.052-14.296 17.649-6.276 33.352-14.521 44.437-25.877l-7.872-7.684c-9.415 9.645-23.337 17.182-40.251 23.197-16.858 5.995-36.262 10.331-56.26 13.825-16.247 2.838-32.727 5.096-48.45 7.25h-.004c-3.632.498-7.224.99-10.763 1.482-18.741 2.607-36.111 5.237-49.716 8.764-47.823 12.399-85.75 49.675-115.024 92.023-55.2074 67.946-96.18 70.596-111.3091 66.954l-2.5746 10.695c20.8588 5.021 65.8323-.988 122.5587-70.882l.134-.165.121-.176c28.709-41.579 64.744-76.365 108.854-87.801zm245.602-9.702c-20.135 12.99-75.776 41.06-133.823 41.06-36.176 0-57.49 3.089-74.707 10.033-17.277 6.968-30.876 17.968-51.576 35.071-19.094 15.775-34.745 31.327-49.712 46.198l-.135.135c-.938.931-1.872 1.859-2.804 2.785-15.813 15.697-31.107 30.645-48.878 43.791l-.327.242-.359.191c-23.585 12.561-41.9384 18.956-57.8134 22.172-15.796 3.2-28.92 3.2-41.7037 3.2h-.0015-.1428v-11c12.847 0 25.008-.012 39.664-2.981 14.56-2.95 31.8024-8.872 54.4674-20.909 16.912-12.554 31.603-26.886 47.344-42.513.993-.986 1.99-1.977 2.992-2.972l.002-.002c14.926-14.831 30.905-30.71 50.4-46.817 20.452-16.898 35.342-29.079 54.469-36.793 19.186-7.738 42.189-10.831 78.821-10.831 55.068 0 108.601-26.879 127.859-39.303zm-160.326 87.623c8.816-2.784 21.581-4.256 37.222-5.512 4.549-.366 9.326-.712 14.273-1.071l.008-.001h.002.001.01c11.775-.854 24.511-1.778 37.427-3.193 36.606-4.012 76.539-12.115 104.875-35.204l-6.948-8.528c-25.663 20.911-62.731 28.809-99.125 32.797-12.706 1.392-25.101 2.291-36.793 3.139l-.012.001h-.004c-5.004.363-9.879.716-14.595 1.095-15.484 1.244-29.469 2.771-39.653 5.987-8.655 2.734-19.846 10.076-31.969 19.367-12.312 9.436-26.229 21.399-40.463 33.998-7.106 6.291-14.283 12.73-21.39 19.108-21.548 19.336-42.457 38.099-58.822 50.372-16.414 12.311-36.541 19.097-57.476 24.697-5.052 1.351-10.183 2.639-15.316 3.927-15.7454 3.952-31.5114 7.908-45.0744 13.721l4.333 10.111c12.683-5.436 27.212-9.085 42.7124-12.978l.004-.001c5.293-1.329 10.699-2.687 16.183-4.154 21.162-5.66 43.035-12.873 61.234-26.523 16.789-12.592 38.256-31.856 59.912-51.29 7.028-6.307 14.076-12.632 20.991-18.753 14.201-12.571 27.877-24.318 39.863-33.504 12.175-9.331 21.988-15.523 28.59-17.608zm146.683 28.284c-31.223 5.929-69.833 10.2-103.976 12.459-6.663.441-14.523 3.522-23.295 8.824-8.699 5.258-17.854 12.427-27.034 20.485-12.11 10.63-23.821 22.388-34.424 33.033l-.006.007c-5.612 5.634-10.914 10.957-15.8 15.636l-1.142 1.094-.255.245c-10.665 10.224-23.011 22.059-41.806 34.151-19.619 12.622-46.097 25.426-84.995 37.298-31.631 9.653-46.94 32.913-50.144 39.612l-9.9244-4.746c4.13-8.634 21.4884-34.593 56.8574-45.387 38.101-11.629 63.624-24.042 82.254-36.028 17.889-11.508 29.58-22.714 40.231-32.923.44-.422.879-.842 1.316-1.261 4.529-4.337 9.649-9.475 15.165-15.01v-.001l.003-.002.003-.003c10.778-10.816 23.067-23.147 35.411-33.982 9.414-8.264 19.118-15.901 28.6-21.632 9.407-5.686 19.047-9.776 28.259-10.386 33.857-2.24 71.998-6.469 102.65-12.29 15.348-2.915 28.634-6.195 38.512-9.755 4.946-1.783 8.862-3.575 11.702-5.326 2.953-1.821 4.166-3.249 4.552-4.044l9.894 4.806c-1.739 3.581-5.057 6.371-8.672 8.601-3.729 2.299-8.418 4.391-13.746 6.311-10.669 3.846-24.601 7.253-40.19 10.214zm-52.231 49.957c13.874.991 37.549.599 59.594-1.219 11.043-.91 21.805-2.188 30.818-3.861 8.739-1.623 16.679-3.755 21.423-6.759l-5.886-9.293c-2.756 1.745-8.753 3.604-17.545 5.236-8.519 1.582-18.882 2.821-29.714 3.715-21.705 1.789-44.78 2.147-57.906 1.209-14.471-1.033-25.788 1.516-36.371 7.53-10.322 5.865-19.69 14.899-30.489 26.147-11.821 12.314-38.526 37.346-67.32 60.819-14.387 11.729-29.219 23.006-42.915 32.088-13.799 9.15-26.064 15.812-35.392 18.639-36.445 11.044-56.649 33.139-69.368 47.048-1.999 2.186-3.813 4.17-5.476 5.877l7.878 7.676c1.845-1.893 3.792-4.013 5.885-6.293l.002-.002c12.755-13.892 30.917-33.672 64.269-43.779 10.922-3.31 24.282-10.716 38.281-19.998 14.1-9.35 29.237-20.868 43.787-32.73 29.082-23.708 56.126-49.041 68.305-61.727 10.836-11.288 19.218-19.218 27.988-24.201 8.508-4.835 17.623-7.017 30.152-6.122zm-73.464 108.634c4.308-3.811 9.531-8.915 15.277-14.532l.033-.032c1.721-1.682 3.489-3.409 5.293-5.162 7.927-7.7 16.716-16.039 25.871-23.691 9.173-7.668 18.565-14.518 27.667-19.312 9.157-4.823 17.562-7.319 24.901-6.9l.157.009h.157 47.5v-11h-47.349c-10.11-.534-20.533 2.913-30.492 8.159-10.069 5.302-20.132 12.694-29.596 20.604-9.481 7.925-18.51 16.499-26.481 24.241-1.821 1.769-3.58 3.488-5.272 5.141l-.033.033-.066.064-.01.01-.014.013-.038.037-.032.032-.003.002-.042.042-.003.002-.005.005c-5.689 5.56-10.627 10.386-14.708 13.996-25.952 22.958-75.641 63.676-110.186 84.403l5.66 9.432c35.455-21.273 85.767-62.554 111.814-85.596zm-22.683 89.696c12.767-13.251 46.594-39.464 79.147-63.116 16.188-11.762 31.911-22.783 44.315-31.1 6.206-4.162 11.546-7.623 15.681-10.155 4.37-2.675 6.849-3.965 7.635-4.227l-3.478-10.435c-2.214.738-5.818 2.781-9.9 5.28-4.317 2.643-9.797 6.197-16.065 10.4-12.544 8.412-28.383 19.516-44.654 31.338-32.364 23.515-67.036 50.302-80.603 64.383zm85.988-37.392c-3.622 2.415-9.23 6.427-14.38 10.689-2.575 2.13-5.104 4.38-7.236 6.568-2.051 2.104-4.062 4.479-5.252 6.86l9.838 4.919c.41-.82 1.449-2.211 3.292-4.102 1.762-1.808 3.97-3.784 6.37-5.77 4.8-3.972 10.092-7.76 13.47-10.011z" fill="#ab6dff" fill-rule="evenodd"/></g><g fill="#fff"><path d="m821.583 394.24c-23.254 0-43.627-5.227-61.121-15.68-17.493-10.667-30.933-24.853-40.319-42.56-9.387-17.92-14.081-37.547-14.081-58.88s4.694-40.853 14.081-58.56c9.386-17.92 22.826-32.107 40.319-42.56 17.494-10.667 37.867-16 61.121-16 23.253 0 43.626 5.333 61.12 16 17.493 10.453 30.933 24.64 40.32 42.56 9.386 17.707 14.08 37.227 14.08 58.56s-4.694 40.96-14.08 58.88c-9.387 17.707-22.827 31.893-40.32 42.56-17.494 10.453-37.867 15.68-61.12 15.68zm0-26.24c17.493 0 32.639-4.053 45.439-12.16 12.8-8.32 22.614-19.307 29.44-32.96 6.827-13.867 10.134-29.12 9.921-45.76.213-16.64-3.094-31.787-9.921-45.44-6.826-13.867-16.64-24.853-29.44-32.96-12.8-8.32-27.946-12.48-45.439-12.48-17.494 0-32.747 4.16-45.76 12.48-12.8 8.107-22.614 19.093-29.44 32.96-6.827 13.653-10.134 28.8-9.92 45.44-.214 16.64 3.093 31.893 9.92 45.76 6.826 13.653 16.64 24.64 29.44 32.96 13.013 8.107 28.266 12.16 45.76 12.16z"/><path d="m1129.58 354.88h-93.12l-10.56 34.24h-31.362l75.842-224h25.6l75.84 224h-31.36zm-8-26.24-38.72-123.2-38.08 123.2z"/><path d="m1312.69 394.24c-25.39 0-45.23-6.72-59.52-20.16-14.3-13.44-21.44-32.213-21.44-56.32h29.12c0 15.787 4.58 28.267 13.76 37.44 9.17 8.96 21.76 13.44 37.76 13.44 14.08 0 24.96-3.2 32.64-9.6s11.52-15.467 11.52-27.2c0-9.813-2.78-17.707-8.32-23.68-5.34-6.187-14.51-11.52-27.52-16l-37.12-13.12c-30.08-9.6-45.12-29.227-45.12-58.88 0-11.733 2.98-22.187 8.96-31.36 5.97-9.173 14.29-16.213 24.96-21.12 10.66-5.12 22.82-7.68 36.48-7.68 21.97 0 39.57 6.187 52.8 18.56 13.22 12.373 19.84 29.013 19.84 49.92h-29.12c0-13.867-3.84-24.533-11.52-32-7.68-7.68-18.67-11.52-32.96-11.52-12.38 0-22.19 3.093-29.44 9.28-7.26 5.973-10.88 14.08-10.88 24.32 0 9.387 3.09 17.28 9.28 23.68 6.4 6.187 16.53 11.627 30.4 16.32l34.56 12.16c29.22 10.027 43.84 30.08 43.84 60.16 0 19.2-6.62 34.56-19.84 46.08-13.23 11.52-30.94 17.28-53.12 17.28z"/><path d="m1472.25 165.12h29.12v224h-29.12z"/><path d="m1667.13 394.24c-25.39 0-45.23-6.72-59.52-20.16-14.3-13.44-21.44-32.213-21.44-56.32h29.12c0 15.787 4.58 28.267 13.76 37.44 9.17 8.96 21.76 13.44 37.76 13.44 14.08 0 24.96-3.2 32.64-9.6s11.52-15.467 11.52-27.2c0-9.813-2.78-17.707-8.32-23.68-5.34-6.187-14.51-11.52-27.52-16l-37.12-13.12c-30.08-9.6-45.12-29.227-45.12-58.88 0-11.733 2.98-22.187 8.96-31.36 5.97-9.173 14.29-16.213 24.96-21.12 10.66-5.12 22.82-7.68 36.48-7.68 21.97 0 39.57 6.187 52.8 18.56 13.22 12.373 19.83 29.013 19.83 49.92h-29.11c0-13.867-3.84-24.533-11.52-32-7.68-7.68-18.67-11.52-32.96-11.52-12.38 0-22.19 3.093-29.44 9.28-7.26 5.973-10.88 14.08-10.88 24.32 0 9.387 3.09 17.28 9.28 23.68 6.4 6.187 16.53 11.627 30.4 16.32l34.56 12.16c29.22 10.027 43.83 30.08 43.83 60.16 0 19.2-6.61 34.56-19.83 46.08-13.23 11.52-30.94 17.28-53.12 17.28z"/><path d="m1898.2 194h53.52c17.76 0 33.12 3.92 46.08 11.76 12.96 7.68 22.72 17.92 29.28 30.72 6.72 12.8 10.08 26.64 10.08 41.52s-3.36 28.72-10.08 41.52c-6.56 12.8-16.32 23.12-29.28 30.96-12.96 7.68-28.32 11.52-46.08 11.52h-53.52zm51.84 148.32c13.92 0 25.76-2.96 35.52-8.88 9.76-6.08 17.04-14 21.84-23.76s7.2-20.32 7.2-31.68-2.4-21.92-7.2-31.68-12.08-17.6-21.84-23.52c-9.76-6.08-21.6-9.12-35.52-9.12h-30v128.64zm210.06-41.76c0 4.8-.16 8.88-.48 12.24h-85.68c.16 10.56 3.36 18.88 9.6 24.96 6.24 5.92 14.64 8.88 25.2 8.88 7.36 0 13.52-1.36 18.48-4.08 4.96-2.88 8.56-6.96 10.8-12.24h20.88c-1.92 10.24-7.52 18.56-16.8 24.96s-20.4 9.6-33.36 9.6c-16.96 0-30.48-5.2-40.56-15.6-9.92-10.56-14.88-24.8-14.88-42.72 0-11.52 2.24-21.68 6.72-30.48s10.8-15.6 18.96-20.4c8.32-4.8 17.92-7.2 28.8-7.2 10.24 0 19.28 2.24 27.12 6.72 8 4.32 14.16 10.48 18.48 18.48 4.48 7.84 6.72 16.8 6.72 26.88zm-20.4-3.84c0-9.76-2.88-17.44-8.64-23.04-5.6-5.6-13.44-8.4-23.52-8.4-9.92 0-17.92 2.88-24 8.64-5.92 5.76-9.12 13.36-9.6 22.8zm82.19 68.16c-8.8 0-16.72-1.52-23.76-4.56-6.88-3.2-12.32-7.52-16.32-12.96-3.84-5.6-5.76-11.76-5.76-18.48h20.64c0 5.6 2.4 10.24 7.2 13.92 4.8 3.52 11.2 5.28 19.2 5.28 6.24 0 11.2-1.44 14.88-4.32s5.52-6.72 5.52-11.52c0-4-1.2-7.2-3.6-9.6-2.4-2.56-6.72-4.64-12.96-6.24l-22.56-5.76c-8.16-2.24-14.4-5.92-18.72-11.04-4.16-5.28-6.24-11.76-6.24-19.44 0-9.28 3.84-16.88 11.52-22.8 7.84-5.92 17.76-8.88 29.76-8.88 13.12 0 23.44 2.96 30.96 8.88 7.68 5.92 11.52 14.08 11.52 24.48h-20.4c0-5.28-2-9.44-6-12.48-4-3.2-9.6-4.8-16.8-4.8-5.92 0-10.72 1.36-14.4 4.08-3.68 2.56-5.52 6.08-5.52 10.56 0 3.68 1.2 6.8 3.6 9.36 2.56 2.4 6.72 4.4 12.48 6l22.8 6.24c8.16 2.24 14.48 6 18.96 11.28s6.72 11.76 6.72 19.44c0 10.4-3.84 18.56-11.52 24.48s-18.08 8.88-31.2 8.88zm68.46-113.52h20.64v110.64h-20.64zm10.32-18.96c-4.96 0-9.04-1.6-12.24-4.8s-4.8-7.2-4.8-12 1.6-8.8 4.8-12c3.2-3.36 7.28-5.04 12.24-5.04 4.8 0 8.8 1.68 12 5.04 3.2 3.2 4.8 7.2 4.8 12s-1.6 8.8-4.8 12-7.2 4.8-12 4.8zm149.84 18.96v107.76c0 21.12-6.4 36.64-19.2 46.56-9.28 6.88-22 10.32-38.16 10.32-7.68 0-14.96-.96-21.84-2.88-6.72-1.76-12.56-4.4-17.52-7.92s-8.88-7.84-11.76-12.96c-2.88-4.96-4.4-10.4-4.56-16.32h21.84c.8 6.72 4 12.16 9.6 16.32 5.76 4.16 13.76 6.24 24 6.24 12.16 0 21.36-3.12 27.6-9.36 6.24-6.08 9.36-15.6 9.36-28.56v-18c-3.36 6.88-8.72 12.32-16.08 16.32s-15.12 6-23.28 6c-11.04 0-20.72-2.56-29.04-7.68-8.16-5.12-14.48-12.08-18.96-20.88s-6.72-18.64-6.72-29.52 2.32-20.72 6.96-29.52c4.64-8.96 11.12-16 19.44-21.12 8.48-5.12 18.08-7.68 28.8-7.68 8.64 0 16.4 2 23.28 6s12.08 9.52 15.6 16.56v-19.68zm-57.12 94.8c7.52 0 14.08-1.76 19.68-5.28 5.76-3.52 10.16-8.24 13.2-14.16 3.04-6.08 4.56-12.72 4.56-19.92 0-7.36-1.52-14-4.56-19.92-3.04-6.08-7.44-10.88-13.2-14.4-5.6-3.52-12.16-5.28-19.68-5.28-10.88 0-19.76 3.76-26.64 11.28-6.88 7.36-10.32 16.8-10.32 28.32 0 11.36 3.44 20.8 10.32 28.32 6.88 7.36 15.76 11.04 26.64 11.04zm90.67-94.8h20.88v20.4c3.04-7.2 7.84-12.88 14.4-17.04 6.72-4.16 14.8-6.24 24.24-6.24 13.44 0 23.6 3.84 30.48 11.52 7.04 7.68 10.56 18.96 10.56 33.84v68.16h-20.64v-59.04c0-12.48-2.24-21.68-6.72-27.6-4.32-5.92-11.36-8.88-21.12-8.88-10.08 0-17.84 3.36-23.28 10.08-5.28 6.56-7.92 15.52-7.92 26.88v58.56h-20.88zm242.49 114.48c-19.04 0-33.92-5.04-44.64-15.12s-16.08-24.16-16.08-42.24h21.84c0 11.84 3.44 21.2 10.32 28.08 6.88 6.72 16.32 10.08 28.32 10.08 10.56 0 18.72-2.4 24.48-7.2s8.64-11.6 8.64-20.4c0-7.36-2.08-13.28-6.24-17.76-4-4.64-10.88-8.64-20.64-12l-27.84-9.84c-22.56-7.2-33.84-21.92-33.84-44.16 0-8.8 2.24-16.64 6.72-23.52s10.72-12.16 18.72-15.84c8-3.84 17.12-5.76 27.36-5.76 16.48 0 29.68 4.64 39.6 13.92s14.88 21.76 14.88 37.44h-21.84c0-10.4-2.88-18.4-8.64-24-5.76-5.76-14-8.64-24.72-8.64-9.28 0-16.64 2.32-22.08 6.96-5.44 4.48-8.16 10.56-8.16 18.24 0 7.04 2.32 12.96 6.96 17.76 4.8 4.64 12.4 8.72 22.8 12.24l25.92 9.12c21.92 7.52 32.88 22.56 32.88 45.12 0 14.4-4.96 25.92-14.88 34.56s-23.2 12.96-39.84 12.96zm179.92-114.48v112.8c0 17.44-4.96 30.72-14.88 39.84-9.28 8-21.36 12-36.24 12-16 0-28.48-3.84-37.44-11.52-8.16-6.88-12.32-16.4-12.48-28.56h20.88c.48 7.2 2.96 12.72 7.44 16.56 4.48 4 11.6 6 21.36 6s17.28-2.96 22.56-8.88c5.44-5.76 8.16-14.72 8.16-26.88v-20.64c-3.36 7.04-8.32 12.56-14.88 16.56s-14.4 6-23.52 6c-13.92 0-24.4-4.24-31.44-12.72s-10.56-20-10.56-34.56v-66h20.64v61.68c0 10.56 2.08 18.72 6.24 24.48 4.32 5.76 11.68 8.64 22.08 8.64 10.08 0 17.84-3.6 23.28-10.8 5.44-7.36 8.16-16.4 8.16-27.12v-56.88zm70.89 113.52c-8.8 0-16.72-1.52-23.76-4.56-6.88-3.2-12.32-7.52-16.32-12.96-3.84-5.6-5.76-11.76-5.76-18.48h20.64c0 5.6 2.4 10.24 7.2 13.92 4.8 3.52 11.2 5.28 19.2 5.28 6.24 0 11.2-1.44 14.88-4.32s5.52-6.72 5.52-11.52c0-4-1.2-7.2-3.6-9.6-2.4-2.56-6.72-4.64-12.96-6.24l-22.56-5.76c-8.16-2.24-14.4-5.92-18.72-11.04-4.16-5.28-6.24-11.76-6.24-19.44 0-9.28 3.84-16.88 11.52-22.8 7.84-5.92 17.76-8.88 29.76-8.88 13.12 0 23.44 2.96 30.96 8.88 7.68 5.92 11.52 14.08 11.52 24.48h-20.4c0-5.28-2-9.44-6-12.48-4-3.2-9.6-4.8-16.8-4.8-5.92 0-10.72 1.36-14.4 4.08-3.68 2.56-5.52 6.08-5.52 10.56 0 3.68 1.2 6.8 3.6 9.36 2.56 2.4 6.72 4.4 12.48 6l22.8 6.24c8.16 2.24 14.48 6 18.96 11.28s6.72 11.76 6.72 19.44c0 10.4-3.84 18.56-11.52 24.48s-18.08 8.88-31.2 8.88zm111.02-20.16c2.24 0 4.64-.08 7.2-.24 2.56-.32 4.8-.72 6.72-1.2v18.48c-4.8 1.12-11.04 1.68-18.72 1.68-9.44 0-17.44-2.4-24-7.2-6.56-4.96-9.84-15.28-9.84-30.96v-56.4h-19.92v-17.52h19.92v-35.04h20.88v35.04h27.84v17.52h-27.84v51.84c0 9.76 1.44 16.24 4.32 19.44 2.88 3.04 7.36 4.56 13.44 4.56zm133.34-44.16c0 4.8-.16 8.88-.48 12.24h-85.68c.16 10.56 3.36 18.88 9.6 24.96 6.24 5.92 14.64 8.88 25.2 8.88 7.36 0 13.52-1.36 18.48-4.08 4.96-2.88 8.56-6.96 10.8-12.24h20.88c-1.92 10.24-7.52 18.56-16.8 24.96s-20.4 9.6-33.36 9.6c-16.96 0-30.48-5.2-40.56-15.6-9.92-10.56-14.88-24.8-14.88-42.72 0-11.52 2.24-21.68 6.72-30.48s10.8-15.6 18.96-20.4c8.32-4.8 17.92-7.2 28.8-7.2 10.24 0 19.28 2.24 27.12 6.72 8 4.32 14.16 10.48 18.48 18.48 4.48 7.84 6.72 16.8 6.72 26.88zm-20.4-3.84c0-9.76-2.88-17.44-8.64-23.04-5.6-5.6-13.44-8.4-23.52-8.4-9.92 0-17.92 2.88-24 8.64-5.92 5.76-9.12 13.36-9.6 22.8zm45.24-45.36h20.88v20.16c2.24-6.56 6.24-12 12-16.32 5.76-4.48 12.8-6.72 21.12-6.72 9.44 0 17.12 2.08 23.04 6.24 6.08 4.16 10.16 10 12.24 17.52 2.56-6.88 7.04-12.56 13.44-17.04 6.56-4.48 14-6.72 22.32-6.72 14.08 0 24.24 3.92 30.48 11.76s9.36 18.4 9.36 31.68v70.08h-20.88v-66c0-19.68-8-29.52-24-29.52-8.48 0-15.12 3.12-19.92 9.36-4.8 6.08-7.2 15.6-7.2 28.56v57.6h-20.88v-64.32c0-20.8-7.92-31.2-23.76-31.2-8.8 0-15.6 3.2-20.4 9.6-4.64 6.24-6.96 15.68-6.96 28.32v57.6h-20.88z" opacity=".8"/></g></svg>