<svg fill="none" height="556" viewBox="0 0 554 556" width="554" xmlns="http://www.w3.org/2000/svg" xmlns:xlink="http://www.w3.org/1999/xlink"><linearGradient id="a" gradientUnits="userSpaceOnUse" x1="128.999" x2="414.999" y1="47.1204" y2="515.12"><stop offset="0" stop-color="#6c00ff"/><stop offset="1" stop-color="#dabfff"/></linearGradient><mask id="b" height="481" maskUnits="userSpaceOnUse" width="553" x="0" y="37"><path d="m.515625 277.049 138.454375-239.674 276.014.5148 137.56 240.1882-138.454 239.674-276.015-.514z" fill="url(#a)"/></mask><mask id="c" height="481" maskUnits="userSpaceOnUse" width="553" x="0" y="37"><path d="m.515625 277.049 138.454375-239.674 276.014.5148 137.56 240.1882-138.454 239.674-276.015-.514z" fill="url(#a)"/></mask><g mask="url(#b)"><path clip-rule="evenodd" d="m149.154 43.291c16.463-4.2749 34.457-10.197 45.986-14.3457l3.724 10.3502c-11.739 4.2245-30.066 10.2593-46.946 14.6424-8.428 2.1884-16.625 3.9994-23.519 4.951-3.445.4754-6.682.7533-9.526.7301-2.733-.0223-5.606-.3197-8.021-1.3452l4.3-10.1249c.424.1803 1.578.4522 3.811.4705 2.121.0173 4.786-.193 7.932-.6272 6.285-.8675 14.015-2.5606 22.259-4.7012zm45.614 44.324c57.827 2.461 113.276-19.781 154.951-36.4977 9.086-3.6446 17.517-7.0265 25.175-9.8327l-3.784-10.3285c-8.158 2.9893-16.961 6.5118-26.314 10.2544v.0003c-41.716 16.693-94.369 37.7632-149.56 35.4142-25.292-1.076-45.805 9.716-61.138 21.801-11.234 8.853-20.305 19.002-26.172 25.565-1.985 2.22-3.602 4.03-4.813 5.24l-57.0004 57 7.778 7.778 57.0004-57c1.752-1.752 3.753-3.991 6.048-6.56 5.84-6.535 13.582-15.199 23.967-23.384 14.167-11.165 32.154-20.373 53.862-19.45zm154.628 21.213c-32.476 11.034-66.443 19.792-93.394 19.792-29.599 0-49.042 6.61-63.343 14.995-10.774 6.317-18.59 13.539-26.054 20.436l-.006.005c-2.623 2.423-5.202 4.807-7.85 7.096-18.092 18.095-58.406 59.014-76.6274 79.613-9.699 10.963-23.947 21.619-37.5349 30.4-13.6553 8.824-27.0095 15.987-35.2085 19.915l-4.7532-9.92c7.801-3.738 20.7468-10.675 33.9915-19.234 13.3121-8.603 26.5641-18.614 35.2651-28.45 18.531-20.947 59.2524-62.266 77.2314-80.245l.144-.144.154-.132c2.233-1.926 4.572-4.088 7.064-6.393 7.64-7.064 16.72-15.459 28.62-22.436 16.116-9.449 37.506-16.506 68.907-16.506 25.049 0 57.582-8.242 89.856-19.207 32.136-10.919 63.455-24.339 85.91-34.3186l4.468 10.0516c-22.545 10.02-54.226 23.601-86.84 34.682zm-94.014 66.616c12.895-3.343 29.65-5.898 48.472-8.517 3.468-.482 7.002-.966 10.589-1.458l.054-.007.018-.003h.005c15.734-2.155 32.462-4.447 48.929-7.324 20.252-3.538 40.348-8 58.052-14.296 17.649-6.276 33.352-14.521 44.437-25.877l-7.872-7.684c-9.415 9.645-23.337 17.182-40.251 23.197-16.858 5.995-36.262 10.331-56.26 13.825-16.247 2.838-32.727 5.096-48.45 7.25h-.004c-3.632.498-7.224.99-10.763 1.482-18.741 2.607-36.111 5.237-49.716 8.764-47.823 12.399-85.75 49.675-115.024 92.023-55.2074 67.946-96.18 70.596-111.3091 66.954l-2.5746 10.695c20.8588 5.021 65.8323-.988 122.5587-70.882l.134-.165.121-.176c28.709-41.579 64.744-76.365 108.854-87.801zm245.602-9.702c-20.135 12.99-75.776 41.06-133.823 41.06-36.176 0-57.49 3.089-74.707 10.033-17.277 6.968-30.876 17.968-51.576 35.071-19.094 15.775-34.745 31.327-49.712 46.198l-.135.135c-.938.931-1.872 1.859-2.804 2.785-15.813 15.697-31.107 30.645-48.878 43.791l-.327.242-.359.191c-23.585 12.561-41.9384 18.956-57.8134 22.172-15.796 3.2-28.92 3.2-41.7037 3.2h-.0015-.1428v-11c12.847 0 25.008-.012 39.664-2.981 14.56-2.95 31.8024-8.872 54.4674-20.909 16.912-12.554 31.603-26.886 47.344-42.513.993-.986 1.99-1.977 2.992-2.972l.002-.002c14.926-14.831 30.905-30.71 50.4-46.817 20.452-16.898 35.342-29.079 54.469-36.793 19.186-7.738 42.189-10.831 78.821-10.831 55.068 0 108.601-26.879 127.859-39.303zm-160.326 87.623c8.816-2.784 21.581-4.256 37.222-5.512 4.549-.366 9.326-.712 14.273-1.071l.008-.001h.002.001.01c11.775-.854 24.511-1.778 37.427-3.193 36.606-4.012 76.539-12.115 104.875-35.204l-6.948-8.528c-25.663 20.911-62.731 28.809-99.125 32.797-12.706 1.392-25.101 2.291-36.793 3.139l-.012.001h-.004c-5.004.363-9.879.716-14.595 1.095-15.484 1.244-29.469 2.771-39.653 5.987-8.655 2.734-19.846 10.076-31.969 19.367-12.312 9.436-26.229 21.399-40.463 33.998-7.106 6.291-14.283 12.73-21.39 19.108-21.548 19.336-42.457 38.099-58.822 50.372-16.414 12.311-36.541 19.097-57.476 24.697-5.052 1.351-10.183 2.639-15.316 3.927-15.7454 3.952-31.5114 7.908-45.0744 13.721l4.333 10.111c12.683-5.436 27.212-9.085 42.7124-12.978l.004-.001c5.293-1.329 10.699-2.687 16.183-4.154 21.162-5.66 43.035-12.873 61.234-26.523 16.789-12.592 38.256-31.856 59.912-51.29 7.028-6.307 14.076-12.632 20.991-18.753 14.201-12.571 27.877-24.318 39.863-33.504 12.175-9.331 21.988-15.523 28.59-17.608zm146.683 28.284c-31.223 5.929-69.833 10.2-103.976 12.459-6.663.441-14.523 3.522-23.295 8.824-8.699 5.258-17.854 12.427-27.034 20.485-12.11 10.63-23.821 22.388-34.424 33.033l-.006.007c-5.612 5.634-10.914 10.957-15.8 15.636l-1.142 1.094-.255.245c-10.665 10.224-23.011 22.059-41.806 34.151-19.619 12.622-46.097 25.426-84.995 37.298-31.631 9.653-46.94 32.913-50.144 39.612l-9.9244-4.746c4.13-8.634 21.4884-34.593 56.8574-45.387 38.101-11.629 63.624-24.042 82.254-36.028 17.889-11.508 29.58-22.714 40.231-32.923.44-.422.879-.842 1.316-1.261 4.529-4.337 9.649-9.475 15.165-15.01v-.001l.003-.002.003-.003c10.778-10.816 23.067-23.147 35.411-33.982 9.414-8.264 19.118-15.901 28.6-21.632 9.407-5.686 19.047-9.776 28.259-10.386 33.857-2.24 71.998-6.469 102.65-12.29 15.348-2.915 28.634-6.195 38.512-9.755 4.946-1.783 8.862-3.575 11.702-5.326 2.953-1.821 4.166-3.249 4.552-4.044l9.894 4.806c-1.739 3.581-5.057 6.371-8.672 8.601-3.729 2.299-8.418 4.391-13.746 6.311-10.669 3.846-24.601 7.253-40.19 10.214zm-52.231 49.957c13.874.991 37.549.599 59.594-1.219 11.043-.91 21.805-2.188 30.818-3.861 8.739-1.623 16.679-3.755 21.423-6.759l-5.886-9.293c-2.756 1.745-8.753 3.604-17.545 5.236-8.519 1.582-18.882 2.821-29.714 3.715-21.705 1.789-44.78 2.147-57.906 1.209-14.471-1.033-25.788 1.516-36.371 7.53-10.322 5.865-19.69 14.899-30.489 26.147-11.821 12.314-38.526 37.346-67.32 60.819-14.387 11.729-29.219 23.006-42.915 32.088-13.799 9.15-26.064 15.812-35.392 18.639-36.445 11.044-56.649 33.139-69.368 47.048-1.999 2.186-3.813 4.17-5.476 5.877l7.878 7.676c1.845-1.893 3.792-4.013 5.885-6.293l.002-.002c12.755-13.892 30.917-33.672 64.269-43.779 10.922-3.31 24.282-10.716 38.281-19.998 14.1-9.35 29.237-20.868 43.787-32.73 29.082-23.708 56.126-49.041 68.305-61.727 10.836-11.288 19.218-19.218 27.988-24.201 8.508-4.835 17.623-7.017 30.152-6.122zm-73.464 108.634c4.308-3.811 9.531-8.915 15.277-14.532l.033-.032c1.721-1.682 3.489-3.409 5.293-5.162 7.927-7.7 16.716-16.039 25.871-23.691 9.173-7.668 18.565-14.518 27.667-19.312 9.157-4.823 17.562-7.319 24.901-6.9l.157.009h.157 47.5v-11h-47.349c-10.11-.534-20.533 2.913-30.492 8.159-10.069 5.302-20.132 12.694-29.596 20.604-9.481 7.925-18.51 16.499-26.481 24.241-1.821 1.769-3.58 3.488-5.272 5.141l-.033.033-.066.064-.01.01-.014.013-.038.037-.032.032-.003.002-.042.042-.003.002-.005.005c-5.689 5.56-10.627 10.386-14.708 13.996-25.952 22.958-75.641 63.676-110.186 84.403l5.66 9.432c35.455-21.273 85.767-62.554 111.814-85.596zm-22.683 89.696c12.767-13.251 46.594-39.464 79.147-63.116 16.188-11.762 31.911-22.783 44.315-31.1 6.206-4.162 11.546-7.623 15.681-10.155 4.37-2.675 6.849-3.965 7.635-4.227l-3.478-10.435c-2.214.738-5.818 2.781-9.9 5.28-4.317 2.643-9.797 6.197-16.065 10.4-12.544 8.412-28.383 19.516-44.654 31.338-32.364 23.515-67.036 50.302-80.603 64.383zm85.988-37.392c-3.622 2.415-9.23 6.427-14.38 10.689-2.575 2.13-5.104 4.38-7.236 6.568-2.051 2.104-4.062 4.479-5.252 6.86l9.838 4.919c.41-.82 1.449-2.211 3.292-4.102 1.762-1.808 3.97-3.784 6.37-5.77 4.8-3.972 10.092-7.76 13.47-10.011z" fill="#ab6dff" fill-rule="evenodd"/></g><g mask="url(#c)"><path clip-rule="evenodd" d="m149.154 43.291c16.463-4.2749 34.457-10.197 45.986-14.3457l3.724 10.3502c-11.739 4.2245-30.066 10.2593-46.946 14.6424-8.428 2.1884-16.625 3.9994-23.519 4.951-3.445.4754-6.682.7533-9.526.7301-2.733-.0223-5.606-.3197-8.021-1.3452l4.3-10.1249c.424.1803 1.578.4522 3.811.4705 2.121.0173 4.786-.193 7.932-.6272 6.285-.8675 14.015-2.5606 22.259-4.7012zm45.614 44.324c57.827 2.461 113.276-19.781 154.951-36.4977 9.086-3.6446 17.517-7.0265 25.175-9.8327l-3.784-10.3285c-8.158 2.9893-16.961 6.5118-26.314 10.2544v.0003c-41.716 16.693-94.369 37.7632-149.56 35.4142-25.292-1.076-45.805 9.716-61.138 21.801-11.234 8.853-20.305 19.002-26.172 25.565-1.985 2.22-3.602 4.03-4.813 5.24l-57.0004 57 7.778 7.778 57.0004-57c1.752-1.752 3.753-3.991 6.048-6.56 5.84-6.535 13.582-15.199 23.967-23.384 14.167-11.165 32.154-20.373 53.862-19.45zm154.628 21.213c-32.476 11.034-66.443 19.792-93.394 19.792-29.599 0-49.042 6.61-63.343 14.995-10.774 6.317-18.59 13.539-26.054 20.436l-.006.005c-2.623 2.423-5.202 4.807-7.85 7.096-18.092 18.095-58.406 59.014-76.6274 79.613-9.699 10.963-23.947 21.619-37.5349 30.4-13.6553 8.824-27.0095 15.987-35.2085 19.915l-4.7532-9.92c7.801-3.738 20.7468-10.675 33.9915-19.234 13.3121-8.603 26.5641-18.614 35.2651-28.45 18.531-20.947 59.2524-62.266 77.2314-80.245l.144-.144.154-.132c2.233-1.926 4.572-4.088 7.064-6.393 7.64-7.064 16.72-15.459 28.62-22.436 16.116-9.449 37.506-16.506 68.907-16.506 25.049 0 57.582-8.242 89.856-19.207 32.136-10.919 63.455-24.339 85.91-34.3186l4.468 10.0516c-22.545 10.02-54.226 23.601-86.84 34.682zm-94.014 66.616c12.895-3.343 29.65-5.898 48.472-8.517 3.468-.482 7.002-.966 10.589-1.458l.054-.007.018-.003h.005c15.734-2.155 32.462-4.447 48.929-7.324 20.252-3.538 40.348-8 58.052-14.296 17.649-6.276 33.352-14.521 44.437-25.877l-7.872-7.684c-9.415 9.645-23.337 17.182-40.251 23.197-16.858 5.995-36.262 10.331-56.26 13.825-16.247 2.838-32.727 5.096-48.45 7.25h-.004c-3.632.498-7.224.99-10.763 1.482-18.741 2.607-36.111 5.237-49.716 8.764-47.823 12.399-85.75 49.675-115.024 92.023-55.2074 67.946-96.18 70.596-111.3091 66.954l-2.5746 10.695c20.8588 5.021 65.8323-.988 122.5587-70.882l.134-.165.121-.176c28.709-41.579 64.744-76.365 108.854-87.801zm245.602-9.702c-20.135 12.99-75.776 41.06-133.823 41.06-36.176 0-57.49 3.089-74.707 10.033-17.277 6.968-30.876 17.968-51.576 35.071-19.094 15.775-34.745 31.327-49.712 46.198l-.135.135c-.938.931-1.872 1.859-2.804 2.785-15.813 15.697-31.107 30.645-48.878 43.791l-.327.242-.359.191c-23.585 12.561-41.9384 18.956-57.8134 22.172-15.796 3.2-28.92 3.2-41.7037 3.2h-.0015-.1428v-11c12.847 0 25.008-.012 39.664-2.981 14.56-2.95 31.8024-8.872 54.4674-20.909 16.912-12.554 31.603-26.886 47.344-42.513.993-.986 1.99-1.977 2.992-2.972l.002-.002c14.926-14.831 30.905-30.71 50.4-46.817 20.452-16.898 35.342-29.079 54.469-36.793 19.186-7.738 42.189-10.831 78.821-10.831 55.068 0 108.601-26.879 127.859-39.303zm-160.326 87.623c8.816-2.784 21.581-4.256 37.222-5.512 4.549-.366 9.326-.712 14.273-1.071l.008-.001h.002.001.01c11.775-.854 24.511-1.778 37.427-3.193 36.606-4.012 76.539-12.115 104.875-35.204l-6.948-8.528c-25.663 20.911-62.731 28.809-99.125 32.797-12.706 1.392-25.101 2.291-36.793 3.139l-.012.001h-.004c-5.004.363-9.879.716-14.595 1.095-15.484 1.244-29.469 2.771-39.653 5.987-8.655 2.734-19.846 10.076-31.969 19.367-12.312 9.436-26.229 21.399-40.463 33.998-7.106 6.291-14.283 12.73-21.39 19.108-21.548 19.336-42.457 38.099-58.822 50.372-16.414 12.311-36.541 19.097-57.476 24.697-5.052 1.351-10.183 2.639-15.316 3.927-15.7454 3.952-31.5114 7.908-45.0744 13.721l4.333 10.111c12.683-5.436 27.212-9.085 42.7124-12.978l.004-.001c5.293-1.329 10.699-2.687 16.183-4.154 21.162-5.66 43.035-12.873 61.234-26.523 16.789-12.592 38.256-31.856 59.912-51.29 7.028-6.307 14.076-12.632 20.991-18.753 14.201-12.571 27.877-24.318 39.863-33.504 12.175-9.331 21.988-15.523 28.59-17.608zm146.683 28.284c-31.223 5.929-69.833 10.2-103.976 12.459-6.663.441-14.523 3.522-23.295 8.824-8.699 5.258-17.854 12.427-27.034 20.485-12.11 10.63-23.821 22.388-34.424 33.033l-.006.007c-5.612 5.634-10.914 10.957-15.8 15.636l-1.142 1.094-.255.245c-10.665 10.224-23.011 22.059-41.806 34.151-19.619 12.622-46.097 25.426-84.995 37.298-31.631 9.653-46.94 32.913-50.144 39.612l-9.9244-4.746c4.13-8.634 21.4884-34.593 56.8574-45.387 38.101-11.629 63.624-24.042 82.254-36.028 17.889-11.508 29.58-22.714 40.231-32.923.44-.422.879-.842 1.316-1.261 4.529-4.337 9.649-9.475 15.165-15.01v-.001l.003-.002.003-.003c10.778-10.816 23.067-23.147 35.411-33.982 9.414-8.264 19.118-15.901 28.6-21.632 9.407-5.686 19.047-9.776 28.259-10.386 33.857-2.24 71.998-6.469 102.65-12.29 15.348-2.915 28.634-6.195 38.512-9.755 4.946-1.783 8.862-3.575 11.702-5.326 2.953-1.821 4.166-3.249 4.552-4.044l9.894 4.806c-1.739 3.581-5.057 6.371-8.672 8.601-3.729 2.299-8.418 4.391-13.746 6.311-10.669 3.846-24.601 7.253-40.19 10.214zm-52.231 49.957c13.874.991 37.549.599 59.594-1.219 11.043-.91 21.805-2.188 30.818-3.861 8.739-1.623 16.679-3.755 21.423-6.759l-5.886-9.293c-2.756 1.745-8.753 3.604-17.545 5.236-8.519 1.582-18.882 2.821-29.714 3.715-21.705 1.789-44.78 2.147-57.906 1.209-14.471-1.033-25.788 1.516-36.371 7.53-10.322 5.865-19.69 14.899-30.489 26.147-11.821 12.314-38.526 37.346-67.32 60.819-14.387 11.729-29.219 23.006-42.915 32.088-13.799 9.15-26.064 15.812-35.392 18.639-36.445 11.044-56.649 33.139-69.368 47.048-1.999 2.186-3.813 4.17-5.476 5.877l7.878 7.676c1.845-1.893 3.792-4.013 5.885-6.293l.002-.002c12.755-13.892 30.917-33.672 64.269-43.779 10.922-3.31 24.282-10.716 38.281-19.998 14.1-9.35 29.237-20.868 43.787-32.73 29.082-23.708 56.126-49.041 68.305-61.727 10.836-11.288 19.218-19.218 27.988-24.201 8.508-4.835 17.623-7.017 30.152-6.122zm-73.464 108.634c4.308-3.811 9.531-8.915 15.277-14.532l.033-.032c1.721-1.682 3.489-3.409 5.293-5.162 7.927-7.7 16.716-16.039 25.871-23.691 9.173-7.668 18.565-14.518 27.667-19.312 9.157-4.823 17.562-7.319 24.901-6.9l.157.009h.157 47.5v-11h-47.349c-10.11-.534-20.533 2.913-30.492 8.159-10.069 5.302-20.132 12.694-29.596 20.604-9.481 7.925-18.51 16.499-26.481 24.241-1.821 1.769-3.58 3.488-5.272 5.141l-.033.033-.066.064-.01.01-.014.013-.038.037-.032.032-.003.002-.042.042-.003.002-.005.005c-5.689 5.56-10.627 10.386-14.708 13.996-25.952 22.958-75.641 63.676-110.186 84.403l5.66 9.432c35.455-21.273 85.767-62.554 111.814-85.596zm-22.683 89.696c12.767-13.251 46.594-39.464 79.147-63.116 16.188-11.762 31.911-22.783 44.315-31.1 6.206-4.162 11.546-7.623 15.681-10.155 4.37-2.675 6.849-3.965 7.635-4.227l-3.478-10.435c-2.214.738-5.818 2.781-9.9 5.28-4.317 2.643-9.797 6.197-16.065 10.4-12.544 8.412-28.383 19.516-44.654 31.338-32.364 23.515-67.036 50.302-80.603 64.383zm85.988-37.392c-3.622 2.415-9.23 6.427-14.38 10.689-2.575 2.13-5.104 4.38-7.236 6.568-2.051 2.104-4.062 4.479-5.252 6.86l9.838 4.919c.41-.82 1.449-2.211 3.292-4.102 1.762-1.808 3.97-3.784 6.37-5.77 4.8-3.972 10.092-7.76 13.47-10.011z" fill="#ab6dff" fill-rule="evenodd"/></g></svg>