<svg fill="none" height="200" viewBox="0 0 200 200" width="200" xmlns="http://www.w3.org/2000/svg" xmlns:xlink="http://www.w3.org/1999/xlink"><filter id="a" color-interpolation-filters="sRGB" filterUnits="userSpaceOnUse" height="200" width="200" x="0" y="0"><feFlood flood-opacity="0" result="BackgroundImageFix"/><feBlend in="SourceGraphic" in2="BackgroundImageFix" mode="normal" result="shape"/><feColorMatrix in="SourceAlpha" result="hardAlpha" type="matrix" values="0 0 0 0 0 0 0 0 0 0 0 0 0 0 0 0 0 0 127 0"/><feOffset/><feGaussianBlur stdDeviation="5"/><feComposite in2="hardAlpha" k2="-1" k3="1" operator="arithmetic"/><feColorMatrix type="matrix" values="0 0 0 0 0 0 0 0 0 0 0 0 0 0 0 0 0 0 0.05 0"/><feBlend in2="shape" mode="normal" result="effect1_innerShadow"/></filter><g filter="url(#a)" opacity=".3"><path clip-rule="evenodd" d="m100 193c51.362 0 93-41.638 93-93 0-51.3625-41.638-93-93-93-51.3625 0-93 41.6375-93 93 0 51.362 41.6375 93 93 93zm0 7c55.228 0 100-44.772 100-100 0-55.2285-44.772-100-100-100-55.2285 0-100 44.7715-100 100 0 55.228 44.7715 100 100 100z" fill="#64a541" fill-rule="evenodd"/></g><circle cx="99.9994" cy="100" fill="#64a541" r="65.5814"/><path d="m91.1729 120.09c1.1264 1.12 3.0414 1.12 4.1679 0l33.1172-32.9329c1.127-1.1202 1.127-3.0245 0-4.1447l-4.055-4.0326c-1.126-1.1202-2.929-1.1202-4.055 0l-27.0349 26.8842-12.7289-12.546c-1.1264-1.1202-2.9288-1.1202-4.0552 0l-4.0553 4.0327c-1.1264 1.1201-1.1264 3.0243 0 4.1443z" fill="#fff"/></svg>